<mxfile host="app.diagrams.net" modified="2024-05-07T12:37:13.595Z" agent="Mozilla/5.0 (X11; Linux x86_64; rv:109.0) Gecko/20100101 Firefox/115.0" version="24.3.1" etag="Z5kA3ymf7Nmwx45L6pt8" type="github">
  <diagram name="Page-1" id="1vqU3v80DqGaXKh9w2Vo">
    <mxGraphModel>
      <root>
        <mxCell id="0" />
        <mxCell id="1" parent="0" />
      </root>
    </mxGraphModel>
  </diagram>
</mxfile>
